<svg version="1.1" id="Layer_1" xmlns="http://www.w3.org/2000/svg" xmlns:xlink="http://www.w3.org/1999/xlink" x="0px" y="0px"
	 width="100%" viewBox="0 0 1920 1263" enable-background="new 0 0 1920 1263" xml:space="preserve">
<path fill="#000505" opacity="1.000000" stroke="none" 
	d="
M1.000000,634.000000 
	C1.000000,423.045410 1.000000,212.090836 1.000000,1.000000 
	C434.028015,1.000000 867.056091,1.000000 1300.444336,1.342674 
	C1299.495850,2.303496 1298.234741,3.064442 1296.871338,3.517729 
	C1283.201660,8.062531 1270.835571,15.144417 1261.227539,25.719038 
	C1247.325439,41.019775 1237.834351,59.197262 1231.266479,78.756798 
	C1223.973389,100.475616 1220.141968,122.696487 1221.887085,145.794449 
	C1222.905884,159.277557 1224.378174,172.585876 1229.012451,185.343536 
	C1233.246338,196.998764 1240.339233,206.261917 1252.790161,209.715988 
	C1276.164185,216.200424 1299.657227,222.255112 1323.093384,228.516220 
	C1350.226562,235.764969 1377.374268,242.960983 1404.473511,250.334839 
	C1427.002808,256.465179 1450.165039,243.650238 1456.739868,223.192062 
	C1462.727905,204.559830 1468.006714,185.658661 1472.597534,166.634552 
	C1475.168091,155.983047 1475.253418,144.842102 1471.848511,134.075684 
	C1465.053223,112.587830 1453.392212,93.792931 1437.894043,77.772873 
	C1425.917969,65.393478 1413.012939,53.676590 1399.308472,43.260567 
	C1378.560913,27.491486 1357.210327,12.354190 1332.402100,3.177717 
	C1331.461548,2.829817 1330.794556,1.742669 1330.000000,1.000002 
	C1526.917236,1.000000 1723.834351,1.000000 1921.000000,1.000000 
	C1921.000000,133.694595 1921.000000,266.389343 1920.584351,399.556183 
	C1909.159912,397.210114 1898.120850,394.505127 1887.148071,391.553070 
	C1850.777832,381.768219 1814.459839,371.788269 1778.067993,362.084717 
	C1742.291138,352.545074 1706.418213,343.364990 1670.642578,333.820587 
	C1627.187378,322.227417 1583.770752,310.487427 1540.401123,298.578918 
	C1536.670776,297.554626 1535.786987,298.712402 1534.984131,301.741852 
	C1528.495361,326.222717 1521.928589,350.682892 1515.407227,375.155090 
	C1508.218750,402.130493 1501.052979,429.112030 1493.649780,456.946503 
	C1622.027832,491.347290 1750.195557,525.691711 1878.559204,560.088684 
	C1879.295044,558.201782 1880.098022,556.600830 1880.553589,554.906433 
	C1888.059814,526.989990 1895.547729,499.068542 1902.985962,471.133881 
	C1908.375122,450.894531 1913.672852,430.630829 1919.093994,410.400116 
	C1919.253296,409.805878 1920.343750,409.461121 1921.000000,409.000000 
	C1921.000000,693.940369 1921.000000,978.880676 1921.000000,1264.000000 
	C1543.638672,1264.000000 1166.277222,1264.000000 788.457397,1263.531372 
	C787.998962,1215.883545 787.998962,1168.704468 787.998962,1121.525269 
	C788.462769,1121.322876 788.926636,1121.120361 789.390442,1120.917969 
	C793.976257,1125.827637 798.443909,1130.854248 803.170959,1135.623901 
	C815.193115,1147.754517 829.372498,1156.554199 845.132874,1163.095337 
	C861.557190,1169.911865 878.812683,1172.127686 896.292847,1172.850220 
	C902.943848,1173.125000 909.662231,1171.628052 916.356873,1171.015869 
	C930.311829,1169.739624 943.552917,1165.599121 955.902466,1159.361084 
	C973.464905,1150.489746 988.730347,1138.506470 1001.440552,1123.217773 
	C1012.527893,1109.881104 1021.339966,1095.363037 1026.999390,1079.016602 
	C1034.412476,1057.604736 1036.477905,1035.633911 1034.136230,1013.048340 
	C1032.468506,996.962158 1028.582764,981.577759 1021.483154,967.181274 
	C1013.484009,950.960510 1002.658142,936.784790 989.195129,924.466675 
	C979.562988,915.653503 969.303650,907.932434 957.761658,902.021606 
	C936.589783,891.178955 914.065735,886.779236 890.245728,887.847351 
	C878.864441,888.357727 867.840393,889.660278 856.853699,892.841797 
	C832.466736,899.903748 812.656128,913.528381 796.539673,932.899658 
	C794.034851,935.910217 791.307251,938.735535 787.766113,942.663086 
	C787.766113,925.516846 787.766113,909.921631 787.766113,894.341431 
	C776.012390,894.341431 764.625000,894.341431 753.000000,894.341431 
	C753.000000,1017.792603 753.000000,1140.896362 753.000000,1264.000000 
	C502.451996,1264.000000 251.904022,1264.000000 1.000000,1264.000000 
	C1.000000,1221.972656 1.000000,1179.944214 1.221124,1137.121582 
	C5.859807,1140.611572 9.934651,1145.333374 14.752553,1149.106445 
	C39.224236,1168.271118 66.822227,1176.150879 97.731499,1170.990479 
	C120.153763,1167.247070 137.393021,1155.168945 149.962662,1136.647339 
	C160.928101,1120.489624 164.574142,1102.539185 162.181641,1082.944458 
	C159.931412,1064.514771 151.666321,1049.627441 138.057129,1037.757080 
	C123.988319,1025.485718 107.576088,1016.658569 91.127739,1007.938354 
	C78.268631,1001.120911 65.302353,994.186035 55.544544,982.982300 
	C35.442169,959.901367 46.046001,933.957275 69.753273,924.039062 
	C83.161461,918.429688 96.649513,920.104431 109.019501,926.744385 
	C120.008972,932.643250 130.144714,940.132568 141.225098,947.286560 
	C147.818710,940.289307 155.289948,932.360718 163.120087,924.051270 
	C157.747375,919.529480 152.462234,914.821899 146.909836,910.453979 
	C124.401169,892.747314 99.392311,883.649780 70.433228,889.024109 
	C47.775433,893.229065 30.803577,905.685242 20.137379,925.952881 
	C12.490788,940.482788 11.510151,956.285095 13.921492,972.445618 
	C16.873499,992.229736 26.970776,1007.813843 43.095154,1018.738953 
	C58.836914,1029.404907 75.826912,1038.215576 92.126762,1048.075562 
	C102.875412,1054.577637 114.210342,1060.472290 121.654160,1071.185791 
	C131.282623,1085.043579 131.712860,1102.723633 121.777184,1116.537476 
	C110.247360,1132.567871 94.364128,1139.612427 74.367058,1138.163452 
	C63.645355,1137.386597 54.234158,1133.598511 45.703766,1127.907959 
	C37.561489,1122.476440 30.354053,1115.643555 22.460281,1109.201904 
	C22.109695,1109.520508 21.323961,1110.112305 20.685076,1110.834229 
	C15.882329,1116.260376 11.188720,1121.786133 6.276255,1127.110474 
	C4.821281,1128.687256 2.775211,1129.718628 0.999998,1131.000000 
	C1.000000,966.305298 1.000000,801.610596 1.332013,636.395813 
	C2.113264,635.902405 2.562503,635.929077 3.077574,636.329468 
	C5.107376,641.989502 6.878801,647.357056 9.070840,652.547058 
	C16.101580,669.193359 25.456440,684.462097 37.527435,697.909546 
	C54.829041,717.184082 75.169220,732.385925 99.132355,742.543213 
	C112.303787,748.126221 125.645020,753.115295 140.068924,755.192749 
	C140.394348,755.625122 140.640778,755.796204 141.359726,755.924438 
	C169.326447,761.027466 197.117935,762.625854 225.270477,761.758545 
	C225.697403,761.475891 225.888855,761.257202 226.499802,760.993896 
	C230.996002,760.951050 235.030685,760.916077 239.264069,760.779053 
	C239.702682,760.491272 239.897339,760.266357 240.499573,759.992432 
	C243.448761,759.926758 245.976730,760.107178 248.436432,759.777832 
	C267.379456,757.241394 286.021027,753.391418 303.928650,746.517517 
	C326.057037,738.023499 346.110474,726.202393 363.038208,709.422241 
	C371.640381,700.895081 379.083038,691.622559 385.708740,681.303040 
	C394.217316,668.051086 399.772644,653.935852 404.183899,638.914551 
	C404.598511,638.593323 404.767517,638.355286 404.920105,637.669983 
	C407.650208,621.212097 410.331360,605.155151 413.209015,588.963745 
	C413.661743,588.623718 413.832397,588.362305 413.931458,587.582642 
	C414.290833,579.324219 414.932892,571.528564 414.937195,563.732483 
	C415.001556,447.465698 414.982330,331.198914 414.977264,214.932129 
	C414.977142,212.267654 414.911621,209.603195 414.785278,206.762970 
	C414.531525,206.368118 414.321625,206.213379 413.592224,206.097046 
	C380.726379,206.088547 348.332611,206.105972 315.763062,206.214752 
	C315.368225,206.468506 315.213440,206.678406 315.097046,207.407806 
	C315.071106,221.204041 315.071106,234.528229 315.071106,248.864685 
	C313.319061,247.571274 312.749634,247.234024 312.279114,246.791550 
	C295.813843,231.307800 277.719788,218.065033 256.704041,209.592499 
	C245.542267,205.092636 233.624664,202.467529 221.918396,198.814392 
	C221.596069,198.396332 221.356354,198.226791 220.644684,198.089279 
	C216.495895,197.701736 212.771835,197.348953 208.918045,196.814850 
	C208.596161,196.397644 208.356827,196.228485 207.610016,196.100021 
	C191.379898,194.146423 175.645142,195.070236 160.020081,197.296082 
	C120.844177,202.876755 88.082008,221.280762 60.063969,248.588455 
	C48.255341,260.097717 37.867115,272.969818 30.352383,287.678009 
	C24.196316,299.726929 19.391426,312.466217 13.790979,325.034668 
	C13.337934,325.376068 13.166459,325.637909 13.043789,326.347809 
	C11.003787,335.810730 8.999966,344.881195 6.814331,354.081543 
	C6.396080,354.403992 6.226402,354.643768 6.095329,355.362732 
	C2.136821,377.754028 2.961445,399.924530 3.226289,422.263428 
	C3.513029,422.700562 3.735787,422.896393 4.004875,423.501709 
	C5.718908,435.326202 7.424899,446.697693 9.232485,458.265472 
	C9.517315,458.699280 9.738333,458.893890 10.010446,459.423767 
	C10.059526,460.557648 10.095293,461.313446 10.232723,462.265106 
	C10.517562,462.698029 10.738560,462.891998 11.015640,463.440308 
	C11.097213,464.499603 11.060533,465.189697 11.238200,465.819275 
	C19.546251,495.261566 33.994770,521.362488 54.552589,543.957397 
	C71.831116,562.948181 91.915245,578.363159 115.361610,589.093628 
	C130.835907,596.175537 146.866516,601.474731 164.082901,603.184570 
	C164.405304,603.600891 164.644211,603.770569 165.381409,603.901245 
	C176.245987,604.608704 186.688995,606.127197 197.063904,605.753662 
	C209.430450,605.308533 221.738586,603.241211 234.336838,601.842285 
	C235.051849,601.534851 235.502075,601.261841 236.363434,600.974243 
	C248.028564,597.173218 259.754456,594.378052 270.398926,589.311096 
	C280.305878,584.595276 289.235779,577.705994 298.259338,571.299622 
	C303.855377,567.326599 308.824158,562.470154 315.286499,556.980652 
	C314.795319,563.183289 314.481323,568.046326 314.011475,572.894348 
	C313.036530,582.953674 312.046326,593.012512 310.939667,603.057983 
	C309.220673,618.661560 301.892120,631.585510 290.440125,641.818237 
	C277.476868,653.401428 262.248840,661.045776 244.738129,664.205322 
	C244.287094,664.494446 244.089050,664.724304 243.517731,665.008301 
	C236.372528,665.725464 229.649124,666.430298 222.731293,667.236572 
	C222.302017,667.520996 222.109695,667.741089 221.493744,668.005981 
	C210.752380,667.995850 200.477112,667.977966 190.062195,667.729431 
	C189.613983,667.330688 189.305389,667.162598 188.542297,667.002380 
	C172.569931,666.519470 157.810867,662.974915 143.710022,656.420410 
	C132.422791,651.173706 122.736046,643.830322 113.951889,634.809998 
	C113.614624,634.388977 113.367020,634.220337 112.598785,634.097656 
	C75.748634,634.103699 39.371017,634.134399 2.659053,634.154053 
	C1.883140,634.095398 1.441570,634.047668 1.000000,634.000000 
M843.065125,59.897812 
	C843.049072,106.550209 842.972290,153.202789 843.108154,199.854736 
	C843.122192,204.673477 841.627197,206.196991 836.834778,206.097992 
	C823.677734,205.826218 810.510376,206.092072 797.349121,205.953384 
	C793.655151,205.914474 791.921631,206.867142 791.942932,210.975601 
	C792.076050,236.633896 792.072876,262.293518 791.944702,287.951843 
	C791.924683,291.964264 793.471802,293.115417 797.263062,293.065002 
	C809.257324,292.905396 821.255188,292.974548 833.251404,293.019684 
	C843.988342,293.060059 843.006897,291.919373 843.008667,302.565094 
	C843.024658,401.368835 843.019226,500.172577 843.014282,598.976318 
	C843.014099,602.658264 842.297180,606.165833 848.285522,606.117432 
	C878.441223,605.873718 908.600037,605.959595 938.757324,606.062195 
	C942.573059,606.075195 944.408508,604.897949 944.017334,600.911804 
	C943.855347,599.261719 943.995178,597.582153 943.995178,595.915955 
	C943.995483,497.278839 943.994202,398.641724 943.998413,300.004608 
	C943.998718,293.035767 944.017395,293.018555 950.816528,293.013428 
	C966.311890,293.001678 981.808838,292.884705 997.301514,293.087524 
	C1001.630798,293.144196 1003.106140,291.801483 1003.076233,287.382935 
	C1002.905762,262.224945 1002.898560,237.064545 1003.080872,211.906723 
	C1003.114075,207.317841 1001.658264,205.849609 997.081421,205.918427 
	C981.756165,206.148758 966.425293,206.010941 951.096558,206.001816 
	C944.012451,205.997604 943.998596,205.984726 943.997803,198.783340 
	C943.993225,154.130051 944.011597,109.476730 943.947510,64.823517 
	C943.944275,62.588409 943.246765,60.354301 941.960022,58.065918 
	C910.589355,58.053322 879.218750,58.027241 847.848145,58.067669 
	C846.266846,58.069706 844.686279,58.646549 843.065125,59.897812 
M1037.511353,522.984253 
	C1032.325073,542.611877 1027.220947,562.261597 1021.931580,581.861389 
	C1015.500427,605.692261 1008.830078,629.458679 1002.416626,653.294312 
	C995.834778,677.755981 989.486450,702.280334 982.946350,726.753357 
	C976.868225,749.497986 970.645203,772.203735 964.537537,794.940491 
	C960.924316,808.391235 957.411316,821.868896 953.700256,835.913086 
	C1070.557129,867.244385 1187.021851,898.470520 1303.489136,929.686096 
	C1303.973145,928.485168 1304.590576,927.319763 1304.921997,926.078125 
	C1314.799072,889.057312 1324.658936,852.031860 1334.496948,815.000671 
	C1340.708496,791.619629 1346.843262,768.218079 1353.081665,744.844238 
	C1358.693237,723.818970 1364.408813,702.821594 1370.060913,681.807190 
	C1376.723755,657.035095 1383.383423,632.262207 1390.014648,607.481689 
	C1395.849121,585.678162 1401.599976,563.852173 1407.464600,542.056824 
	C1414.594482,515.559570 1421.913574,489.112793 1428.928101,462.585236 
	C1431.790039,451.761536 1431.482300,451.849152 1420.770142,449.016388 
	C1382.470703,438.888214 1344.191406,428.683533 1305.925415,418.429993 
	C1274.554443,410.023956 1243.228271,401.451355 1211.855103,393.053986 
	C1174.989990,383.186676 1138.096924,373.423920 1101.212646,363.627960 
	C1094.683105,361.893738 1088.137695,360.218872 1081.525146,358.497253 
	C1077.189575,374.587067 1073.067993,389.779877 1069.003784,404.987976 
	C1061.917725,431.502838 1054.851074,458.022919 1047.808350,484.549286 
	C1044.474609,497.105652 1041.214844,509.681641 1037.511353,522.984253 
M1735.013428,533.514771 
	C1728.880005,531.955872 1722.722900,530.484436 1716.617188,528.823853 
	C1679.012939,518.596619 1641.447144,508.226898 1603.816162,498.099579 
	C1567.277710,488.266327 1530.665649,478.706146 1494.123535,468.886261 
	C1491.411865,468.157562 1490.667603,468.247803 1489.886963,471.245728 
	C1483.546021,495.592529 1476.954102,519.874084 1470.400879,544.165283 
	C1460.968750,579.128113 1451.436646,614.064148 1442.072021,649.045044 
	C1431.449707,688.724182 1420.975220,728.442810 1410.417603,768.139343 
	C1403.613403,793.723083 1396.829834,819.312378 1389.936646,844.872070 
	C1383.765381,867.754578 1377.405029,890.585938 1371.232300,913.468018 
	C1368.368164,924.085388 1365.750854,934.769409 1362.967896,945.633118 
	C1478.572388,976.605774 1593.912231,1007.507568 1709.335449,1038.431641 
	C1710.678223,1033.392456 1711.839966,1029.016724 1713.010254,1024.643433 
	C1720.018677,998.454956 1727.045776,972.271423 1734.034302,946.077576 
	C1741.483032,918.158752 1748.820068,890.209961 1756.343140,862.311218 
	C1765.473755,828.450867 1774.842407,794.654541 1783.933838,760.783752 
	C1793.192261,726.290588 1802.204224,691.731323 1811.389282,657.218384 
	C1819.615601,626.306763 1827.868652,595.401733 1836.302856,564.546631 
	C1837.141113,561.479614 1836.781250,560.713684 1833.673584,559.895630 
	C1812.011230,554.193420 1790.433594,548.171021 1768.796753,542.370361 
	C1757.815674,539.426392 1746.768066,536.730103 1735.013428,533.514771 
M636.500000,605.981873 
	C651.162598,605.981934 665.825134,605.983276 680.487732,605.981445 
	C688.818848,605.980408 697.150757,605.905457 705.480591,606.005920 
	C708.609802,606.043640 710.190063,604.929443 709.984314,601.652649 
	C709.880066,599.993347 709.979492,598.321472 709.979492,596.655273 
	C709.980286,497.348419 709.978577,398.041595 709.984436,298.734741 
	C709.984802,292.044189 710.011230,292.020386 716.580261,292.014709 
	C733.409119,292.000153 750.239624,291.878143 767.065674,292.094513 
	C771.619507,292.153046 773.116394,290.731384 773.081604,286.122620 
	C772.895813,261.463928 772.882935,236.802170 773.089783,212.143799 
	C773.130371,207.313614 771.603516,205.843796 766.818176,205.910843 
	C749.659485,206.151215 732.494873,205.934036 715.333618,206.055466 
	C711.631104,206.081665 709.886963,205.117188 709.928345,201.020264 
	C710.093201,184.692947 709.807495,168.360107 710.056763,152.034927 
	C710.293823,136.500137 717.410095,128.039474 732.198364,127.300789 
	C742.057190,126.808334 752.048645,128.255890 761.932739,129.292953 
	C766.769714,129.800461 771.497131,131.351639 776.412354,132.461655 
	C776.664856,131.259262 776.915161,130.621353 776.916016,129.983139 
	C776.947632,106.323174 777.021790,82.662621 776.819519,59.004452 
	C776.806091,57.438202 774.979919,55.055920 773.457031,54.479717 
	C767.245667,52.129524 760.879822,50.132042 754.470520,48.369736 
	C725.981323,40.536301 697.368286,38.229610 668.351685,45.886295 
	C638.161194,53.852757 615.754517,77.898460 612.146484,108.850487 
	C610.036682,126.949837 609.746643,145.280350 609.087769,163.523117 
	C608.649109,175.670685 608.849243,187.849915 609.084351,200.008774 
	C609.170715,204.477142 607.887146,206.269974 603.171997,206.093735 
	C594.686218,205.776566 586.178467,206.102295 577.682922,205.967056 
	C574.264221,205.912643 572.956726,207.185257 572.968018,210.642334 
	C573.050842,236.135239 573.059875,261.628723 572.956421,287.121521 
	C572.941406,290.812775 574.284851,292.136688 577.934204,292.056793 
	C585.761658,291.885345 593.595520,292.004181 601.426758,292.010681 
	C608.995728,292.016998 609.003235,292.020599 609.003357,299.747681 
	C609.005127,395.055603 609.004456,490.363525 609.004639,585.671448 
	C609.004700,590.670105 609.215759,595.680115 608.944458,600.663940 
	C608.713562,604.906616 610.488098,606.173706 614.507690,606.042847 
	C621.498352,605.815308 628.501892,605.980896 636.500000,605.981873 
M1112.618408,354.992126 
	C1124.570557,358.063904 1136.557373,361.007141 1148.468384,364.231110 
	C1187.313477,374.745453 1226.103760,385.463867 1264.966919,395.910919 
	C1303.213623,406.192291 1341.529053,416.217010 1379.802979,426.397308 
	C1397.975098,431.230835 1416.120605,436.164276 1434.735718,441.175598 
	C1436.117432,436.176544 1437.475342,431.369537 1438.774536,426.546692 
	C1445.192627,402.722198 1451.610474,378.897583 1457.999023,355.065155 
	C1464.008301,332.648041 1469.926636,310.206421 1476.006226,287.808533 
	C1477.615479,281.879700 1477.468628,281.612335 1471.214111,279.969086 
	C1455.208618,275.763947 1439.255371,271.361298 1423.268799,267.083191 
	C1398.173828,260.367554 1373.067993,253.692337 1347.968262,246.994553 
	C1322.251221,240.131989 1296.526245,233.299316 1270.822754,226.386292 
	C1245.741333,219.640579 1220.696289,212.759460 1195.610474,206.030136 
	C1168.797729,198.837555 1141.957031,191.749466 1115.126465,184.623123 
	C1106.356812,182.293869 1097.581055,179.987671 1088.453369,177.577286 
	C1074.207153,230.718246 1060.093994,283.362305 1045.920044,336.233459 
	C1046.747437,336.734039 1047.494141,337.434784 1048.367310,337.675171 
	C1056.192505,339.829071 1064.047607,341.874298 1071.879272,344.004883 
	C1085.186401,347.624908 1098.483154,351.283752 1112.618408,354.992126 
M448.004852,546.500000 
	C448.005035,564.160706 448.160400,581.823730 447.905457,599.480713 
	C447.834320,604.407532 449.133942,606.131775 454.320068,606.091980 
	C483.975006,605.863892 513.632629,605.986877 543.289368,605.977356 
	C549.967590,605.975220 549.997742,605.950867 549.998047,599.365601 
	C550.003967,470.408905 550.004150,341.452179 549.997681,212.495468 
	C549.997375,206.030807 549.964661,206.010559 543.181152,206.008636 
	C514.024292,206.000336 484.867401,206.003098 455.710541,206.006149 
	C448.015472,206.006958 448.006348,206.014053 448.006195,213.611389 
	C448.004211,324.240936 448.004852,434.870453 448.004852,546.500000 
M227.911682,986.385498 
	C231.309769,974.983643 237.082123,964.925964 244.564072,955.684814 
	C253.814072,944.259827 264.747498,934.882019 277.985138,928.638489 
	C294.791229,920.711670 312.570648,918.712097 330.915649,921.983582 
	C350.891418,925.545898 365.509216,936.322510 375.062866,954.212158 
	C384.847443,972.534119 385.529388,992.688171 385.787598,1012.541748 
	C386.426849,1061.692505 385.998505,1110.857300 385.999115,1160.016357 
	C385.999115,1161.938965 385.999084,1163.861694 385.999084,1165.600098 
	C398.428619,1165.600098 410.151947,1165.600098 421.003906,1165.600098 
	C421.003906,1112.772095 421.179749,1060.351074 420.867737,1007.932983 
	C420.798492,996.301514 419.307617,984.644958 417.941956,973.062317 
	C415.747742,954.452820 409.485901,937.493225 397.434784,922.719177 
	C386.676147,909.529785 373.601288,899.964294 357.753204,893.885681 
	C340.025085,887.086060 321.837250,886.474487 303.295288,888.965393 
	C287.018341,891.151917 272.253632,897.231323 258.512787,906.003479 
	C244.109940,915.198242 232.281067,927.189087 220.961517,941.390503 
	C220.961517,890.328857 220.961517,840.327393 220.961517,790.349060 
	C208.670792,790.349060 196.948120,790.349060 185.376373,790.349060 
	C185.376373,915.744751 185.376373,1040.788330 185.376373,1165.753540 
	C197.360382,1165.753540 208.965530,1165.753540 221.003601,1165.753540 
	C221.003601,1157.883911 220.950485,1150.259399 221.012558,1142.635986 
	C221.325470,1104.209595 221.676086,1065.783569 221.996658,1027.357300 
	C222.110687,1013.691345 223.591431,1000.216064 227.911682,986.385498 
M492.013885,1138.519653 
	C506.976868,1152.134644 524.203674,1161.466309 543.666565,1167.164673 
	C557.206787,1171.128906 571.063965,1171.921753 584.894714,1172.798096 
	C592.183105,1173.260010 599.597778,1171.631348 606.961548,1171.020264 
	C621.426880,1169.819824 635.073792,1165.576782 648.071411,1159.386230 
	C665.350647,1151.156250 679.712708,1139.225098 692.104492,1124.583130 
	C703.854553,1110.699707 713.215027,1095.536987 718.916931,1078.338135 
	C725.137329,1059.575562 728.504150,1040.313599 725.997498,1020.419067 
	C724.894531,1011.664551 724.527771,1002.714050 722.394897,994.211731 
	C715.978882,968.634766 703.267029,946.621826 684.523376,927.782410 
	C667.586853,910.759155 648.191101,898.206360 624.909790,892.692139 
	C611.945190,889.621521 598.482483,888.334167 585.162537,887.219604 
	C578.576111,886.668396 571.812378,888.421143 565.115479,888.967468 
	C550.484131,890.161255 536.681702,894.400513 523.624084,900.843018 
	C499.623108,912.684998 481.071228,930.524414 466.448914,952.888489 
	C451.313660,976.037415 444.859589,1001.591248 444.133270,1028.796143 
	C443.924133,1036.630005 445.235352,1044.516235 446.014618,1052.362061 
	C447.329132,1065.596313 451.190552,1078.151489 456.666962,1090.211182 
	C464.986053,1108.530762 476.708618,1124.401733 492.013885,1138.519653 
M1630.521484,156.991074 
	C1609.773315,168.369873 1597.064819,186.044296 1591.097168,208.572189 
	C1586.934082,224.287720 1583.241211,240.152222 1580.030029,256.089569 
	C1575.668579,277.736572 1589.452026,299.925568 1610.503784,305.612305 
	C1654.146606,317.401520 1697.837524,329.012787 1741.515625,340.671234 
	C1749.535034,342.811798 1757.493896,345.365479 1765.644775,346.787659 
	C1780.598267,349.396698 1792.262329,342.177002 1802.054810,332.133575 
	C1813.690186,320.199921 1823.671143,306.799622 1831.019409,291.770355 
	C1844.727783,263.732697 1851.833496,234.292130 1850.214966,202.759293 
	C1849.437866,187.616501 1846.137817,173.615067 1838.739624,160.450378 
	C1826.185913,138.111725 1807.323975,126.416069 1781.571167,126.001312 
	C1758.443237,125.628830 1735.400635,126.643761 1712.488159,129.948792 
	C1683.815308,134.084717 1656.167969,141.371765 1630.521484,156.991074 
M1541.495361,287.069824 
	C1549.900513,289.709564 1558.151489,289.670868 1566.279907,285.892365 
	C1569.295776,284.490417 1570.147339,283.025055 1568.304199,279.778870 
	C1563.753296,271.764069 1561.722900,263.139618 1563.535278,253.881607 
	C1565.034180,246.225449 1566.237427,238.497284 1568.086060,230.926636 
	C1572.631348,212.312683 1577.755615,193.915329 1590.475830,178.743118 
	C1591.444214,177.588043 1591.724609,174.569260 1590.909790,173.419128 
	C1586.249268,166.839966 1582.069946,159.488693 1576.043091,154.390594 
	C1559.007690,139.980362 1538.586182,134.647629 1516.539062,136.149139 
	C1506.355225,136.842697 1496.524292,139.678329 1488.325073,146.260010 
	C1487.068726,147.268402 1486.227173,149.476883 1486.157837,151.169785 
	C1485.712402,162.057129 1486.925415,173.217651 1484.931763,183.786316 
	C1482.207153,198.228851 1477.245117,212.264587 1472.983154,226.396606 
	C1470.002686,236.280212 1464.369995,244.351257 1455.116699,249.415375 
	C1451.924805,251.162216 1451.886108,252.932541 1453.835693,255.743881 
	C1458.752319,262.834503 1465.668457,266.752350 1473.761963,268.934082 
	C1496.062866,274.945618 1518.371826,280.927582 1541.495361,287.069824 
M543.473633,58.998001 
	C542.270203,58.116226 540.960876,57.347603 539.879883,56.335125 
	C529.171021,46.304874 516.118774,41.639423 501.828888,41.154526 
	C477.493896,40.328773 458.454987,50.649529 444.697815,70.624069 
	C436.412903,82.653145 434.296997,96.257225 434.979248,110.561920 
	C435.887726,129.610260 443.857697,145.365616 458.239227,157.371750 
	C482.881592,177.943924 519.918213,176.399582 541.970825,155.858551 
	C556.866089,141.984268 563.919006,125.144043 563.733582,105.425171 
	C563.566650,87.671165 556.659668,72.184189 543.473633,58.998001 
z"/>
<path fill="#FF5E00" opacity="1.000000" stroke="none" 
	d="
M1921.000000,408.550049 
	C1920.343750,409.461121 1919.253296,409.805878 1919.093994,410.400116 
	C1913.672852,430.630829 1908.375122,450.894531 1902.985962,471.133881 
	C1895.547729,499.068542 1888.059814,526.989990 1880.553589,554.906433 
	C1880.098022,556.600830 1879.295044,558.201782 1878.559204,560.088684 
	C1750.195557,525.691711 1622.027832,491.347290 1493.649780,456.946503 
	C1501.052979,429.112030 1508.218750,402.130493 1515.407227,375.155090 
	C1521.928589,350.682892 1528.495361,326.222717 1534.984131,301.741852 
	C1535.786987,298.712402 1536.670776,297.554626 1540.401123,298.578918 
	C1583.770752,310.487427 1627.187378,322.227417 1670.642578,333.820587 
	C1706.418213,343.364990 1742.291138,352.545074 1778.067993,362.084717 
	C1814.459839,371.788269 1850.777832,381.768219 1887.148071,391.553070 
	C1898.120850,394.505127 1909.159912,397.210114 1920.584351,400.014130 
	C1921.000000,402.700012 1921.000000,405.400024 1921.000000,408.550049 
z"/>
<path fill="#FF5E00" opacity="1.000000" stroke="none" 
	d="
M753.468628,1264.000000 
	C753.000000,1140.896362 753.000000,1017.792603 753.000000,894.341431 
	C764.625000,894.341431 776.012390,894.341431 787.766113,894.341431 
	C787.766113,909.921631 787.766113,925.516846 787.766113,942.663086 
	C791.307251,938.735535 794.034851,935.910217 796.539673,932.899658 
	C812.656128,913.528381 832.466736,899.903748 856.853699,892.841797 
	C867.840393,889.660278 878.864441,888.357727 890.245728,887.847351 
	C914.065735,886.779236 936.589783,891.178955 957.761658,902.021606 
	C969.303650,907.932434 979.562988,915.653503 989.195129,924.466675 
	C1002.658142,936.784790 1013.484009,950.960510 1021.483154,967.181274 
	C1028.582764,981.577759 1032.468506,996.962158 1034.136230,1013.048340 
	C1036.477905,1035.633911 1034.412476,1057.604736 1026.999390,1079.016602 
	C1021.339966,1095.363037 1012.527893,1109.881104 1001.440552,1123.217773 
	C988.730347,1138.506470 973.464905,1150.489746 955.902466,1159.361084 
	C943.552917,1165.599121 930.311829,1169.739624 916.356873,1171.015869 
	C909.662231,1171.628052 902.943848,1173.125000 896.292847,1172.850220 
	C878.812683,1172.127686 861.557190,1169.911865 845.132874,1163.095337 
	C829.372498,1156.554199 815.193115,1147.754517 803.170959,1135.623901 
	C798.443909,1130.854248 793.976257,1125.827637 789.390442,1120.917969 
	C788.926636,1121.120361 788.462769,1121.322876 787.998962,1121.525269 
	C787.998962,1168.704468 787.998962,1215.883545 787.999512,1263.531372 
	C776.645752,1264.000000 765.291565,1264.000000 753.468628,1264.000000 
M919.522400,1136.010010 
	C942.596802,1129.470093 961.637634,1116.984741 975.918396,1097.571045 
	C995.039612,1071.577026 1003.118469,1042.839233 997.012512,1010.736389 
	C992.430908,986.647827 981.311768,966.166626 963.095642,949.541199 
	C949.406555,937.047485 933.701538,928.886780 915.584900,924.749451 
	C896.538147,920.399902 877.927429,921.287231 859.355164,926.900940 
	C837.367859,933.546814 820.290894,947.151245 806.638489,965.054871 
	C794.198547,981.368286 787.487122,1000.254089 786.168335,1020.672058 
	C785.363586,1033.131104 785.960205,1045.590088 788.787842,1058.026245 
	C795.909668,1089.348633 813.678223,1112.128540 841.903687,1126.940796 
	C854.852722,1133.736328 868.587280,1137.667847 883.274048,1139.223755 
	C895.458069,1140.514526 907.069885,1139.238525 919.522400,1136.010010 
z"/>
<path fill="#003333" opacity="1.000000" stroke="none" 
	d="
M1329.531372,1.000002 
	C1330.794556,1.742669 1331.461548,2.829817 1332.402100,3.177717 
	C1357.210327,12.354190 1378.560913,27.491486 1399.308472,43.260567 
	C1413.012939,53.676590 1425.917969,65.393478 1437.894043,77.772873 
	C1453.392212,93.792931 1465.053223,112.587830 1471.848511,134.075684 
	C1475.253418,144.842102 1475.168091,155.983047 1472.597534,166.634552 
	C1468.006714,185.658661 1462.727905,204.559830 1456.739868,223.192062 
	C1450.165039,243.650238 1427.002808,256.465179 1404.473511,250.334839 
	C1377.374268,242.960983 1350.226562,235.764969 1323.093384,228.516220 
	C1299.657227,222.255112 1276.164185,216.200424 1252.790161,209.715988 
	C1240.339233,206.261917 1233.246338,196.998764 1229.012451,185.343536 
	C1224.378174,172.585876 1222.905884,159.277557 1221.887085,145.794449 
	C1220.141968,122.696487 1223.973389,100.475616 1231.266479,78.756798 
	C1237.834351,59.197262 1247.325439,41.019775 1261.227539,25.719038 
	C1270.835571,15.144417 1283.201660,8.062531 1296.871338,3.517729 
	C1298.234741,3.064442 1299.495850,2.303496 1300.902222,1.342674 
	C1310.354248,1.000000 1319.708496,1.000000 1329.531372,1.000002 
M1285.995605,129.542725 
	C1280.592896,148.354553 1280.433105,167.291702 1285.339722,186.158447 
	C1287.932251,196.127762 1292.603394,204.870972 1303.666992,207.920853 
	C1311.349854,210.038712 1319.059082,212.060760 1326.755371,214.129410 
	C1353.065796,221.201172 1379.469482,227.948120 1405.653076,235.462067 
	C1423.146851,240.482300 1437.134399,230.766998 1441.368530,219.688385 
	C1445.509155,208.854507 1448.826172,197.626358 1451.489624,186.331909 
	C1453.702148,176.949249 1454.271484,167.274658 1450.407715,157.875870 
	C1442.219116,137.957779 1428.836670,121.977882 1411.934570,109.184700 
	C1398.324097,98.882797 1383.840942,89.702034 1369.476807,80.439743 
	C1361.417358,75.242882 1352.225464,71.780144 1342.645020,72.282188 
	C1330.019653,72.943817 1318.776245,78.386452 1309.616211,87.064499 
	C1297.587036,98.460800 1290.969604,113.151421 1285.995605,129.542725 
z"/>
<path fill="#FF5E00" opacity="1.000000" stroke="none" 
	d="
M0.999998,1131.428467 
	C2.775211,1129.718628 4.821281,1128.687256 6.276255,1127.110474 
	C11.188720,1121.786133 15.882329,1116.260376 20.685076,1110.834229 
	C21.323961,1110.112305 22.109695,1109.520508 22.460281,1109.201904 
	C30.354053,1115.643555 37.561489,1122.476440 45.703766,1127.907959 
	C54.234158,1133.598511 63.645355,1137.386597 74.367058,1138.163452 
	C94.364128,1139.612427 110.247360,1132.567871 121.777184,1116.537476 
	C131.712860,1102.723633 131.282623,1085.043579 121.654160,1071.185791 
	C114.210342,1060.472290 102.875412,1054.577637 92.126762,1048.075562 
	C75.826912,1038.215576 58.836914,1029.404907 43.095154,1018.738953 
	C26.970776,1007.813843 16.873499,992.229736 13.921492,972.445618 
	C11.510151,956.285095 12.490788,940.482788 20.137379,925.952881 
	C30.803577,905.685242 47.775433,893.229065 70.433228,889.024109 
	C99.392311,883.649780 124.401169,892.747314 146.909836,910.453979 
	C152.462234,914.821899 157.747375,919.529480 163.120087,924.051270 
	C155.289948,932.360718 147.818710,940.289307 141.225098,947.286560 
	C130.144714,940.132568 120.008972,932.643250 109.019501,926.744385 
	C96.649513,920.104431 83.161461,918.429688 69.753273,924.039062 
	C46.046001,933.957275 35.442169,959.901367 55.544544,982.982300 
	C65.302353,994.186035 78.268631,1001.120911 91.127739,1007.938354 
	C107.576088,1016.658569 123.988319,1025.485718 138.057129,1037.757080 
	C151.666321,1049.627441 159.931412,1064.514771 162.181641,1082.944458 
	C164.574142,1102.539185 160.928101,1120.489624 149.962662,1136.647339 
	C137.393021,1155.168945 120.153763,1167.247070 97.731499,1170.990479 
	C66.822227,1176.150879 39.224236,1168.271118 14.752553,1149.106445 
	C9.934651,1145.333374 5.859807,1140.611572 1.221124,1136.663574 
	C1.000000,1135.285645 1.000000,1133.571289 0.999998,1131.428467 
z"/>
<path fill="#003737" opacity="1.000000" stroke="none" 
	d="
M3.011742,635.955811 
	C2.562503,635.929077 2.113264,635.902405 1.332013,635.937866 
	C1.000000,635.555542 1.000000,635.111084 1.000000,634.333313 
	C1.441570,634.047668 1.883140,634.095398 2.661620,634.451843 
	C3.002933,635.158997 3.007337,635.557434 3.011742,635.955811 
z"/>
<path fill="#FF5E00" opacity="1.000000" stroke="none" 
	d="
M1037.716431,522.616455 
	C1041.214844,509.681641 1044.474609,497.105652 1047.808350,484.549286 
	C1054.851074,458.022919 1061.917725,431.502838 1069.003784,404.987976 
	C1073.067993,389.779877 1077.189575,374.587067 1081.525146,358.497253 
	C1088.137695,360.218872 1094.683105,361.893738 1101.212646,363.627960 
	C1138.096924,373.423920 1174.989990,383.186676 1211.855103,393.053986 
	C1243.228271,401.451355 1274.554443,410.023956 1305.925415,418.429993 
	C1344.191406,428.683533 1382.470703,438.888214 1420.770142,449.016388 
	C1431.482300,451.849152 1431.790039,451.761536 1428.928101,462.585236 
	C1421.913574,489.112793 1414.594482,515.559570 1407.464600,542.056824 
	C1401.599976,563.852173 1395.849121,585.678162 1390.014648,607.481689 
	C1383.383423,632.262207 1376.723755,657.035095 1370.060913,681.807190 
	C1364.408813,702.821594 1358.693237,723.818970 1353.081665,744.844238 
	C1346.843262,768.218079 1340.708496,791.619629 1334.496948,815.000671 
	C1324.658936,852.031860 1314.799072,889.057312 1304.921997,926.078125 
	C1304.590576,927.319763 1303.973145,928.485168 1303.487793,929.691406 
	C1187.021851,898.470520 1070.557129,867.244385 953.700256,835.913086 
	C957.411316,821.868896 960.924316,808.391235 964.537537,794.940491 
	C970.645203,772.203735 976.868225,749.497986 982.946350,726.753357 
	C989.486450,702.280334 995.834778,677.755981 1002.416626,653.294312 
	C1008.830078,629.458679 1015.500427,605.692261 1021.931580,581.861389 
	C1027.220947,562.261597 1032.325073,542.611877 1037.716431,522.616455 
z"/>
<path fill="#FF5E00" opacity="1.000000" stroke="none" 
	d="
M1735.382080,533.718262 
	C1746.768066,536.730103 1757.815674,539.426392 1768.796753,542.370361 
	C1790.433594,548.171021 1812.011230,554.193420 1833.673584,559.895630 
	C1836.781250,560.713684 1837.141113,561.479614 1836.302856,564.546631 
	C1827.868652,595.401733 1819.615601,626.306763 1811.389282,657.218384 
	C1802.204224,691.731323 1793.192261,726.290588 1783.933838,760.783752 
	C1774.842407,794.654541 1765.473755,828.450867 1756.343140,862.311218 
	C1748.820068,890.209961 1741.483032,918.158752 1734.034302,946.077576 
	C1727.045776,972.271423 1720.018677,998.454956 1713.010254,1024.643433 
	C1711.839966,1029.016724 1710.678223,1033.392456 1709.335449,1038.431641 
	C1593.912231,1007.507568 1478.572388,976.605774 1362.967896,945.633118 
	C1365.750854,934.769409 1368.368164,924.085388 1371.232300,913.468018 
	C1377.405029,890.585938 1383.765381,867.754578 1389.936646,844.872070 
	C1396.829834,819.312378 1403.613403,793.723083 1410.417603,768.139343 
	C1420.975220,728.442810 1431.449707,688.724182 1442.072021,649.045044 
	C1451.436646,614.064148 1460.968750,579.128113 1470.400879,544.165283 
	C1476.954102,519.874084 1483.546021,495.592529 1489.886963,471.245728 
	C1490.667603,468.247803 1491.411865,468.157562 1494.123535,468.886261 
	C1530.665649,478.706146 1567.277710,488.266327 1603.816162,498.099579 
	C1641.447144,508.226898 1679.012939,518.596619 1716.617188,528.823853 
	C1722.722900,530.484436 1728.880005,531.955872 1735.382080,533.718262 
z"/>
<path fill="#003636" opacity="1.000000" stroke="none" 
	d="
M3.077573,636.329468 
	C3.007337,635.557434 3.002933,635.158997 2.995962,634.462891 
	C39.371017,634.134399 75.748634,634.103699 112.753220,634.257935 
	C113.599350,634.648193 113.835838,634.831177 114.089638,634.991760 
	C122.736046,643.830322 132.422791,651.173706 143.710022,656.420410 
	C157.810867,662.974915 172.569931,666.519470 188.724045,667.185669 
	C189.640808,667.560791 189.921310,667.760437 190.201843,667.960083 
	C200.477112,667.977966 210.752380,667.995850 221.667740,667.875793 
	C222.531982,667.555542 222.737946,667.354675 222.925735,667.135132 
	C229.649124,666.430298 236.372528,665.725464 243.699036,664.874817 
	C244.535126,664.540710 244.748596,664.332458 244.942551,664.104187 
	C262.248840,661.045776 277.476868,653.401428 290.440125,641.818237 
	C301.892120,631.585510 309.220673,618.661560 310.939667,603.057983 
	C312.046326,593.012512 313.036530,582.953674 314.011475,572.894348 
	C314.481323,568.046326 314.795319,563.183289 315.286499,556.980652 
	C308.824158,562.470154 303.855377,567.326599 298.259338,571.299622 
	C289.235779,577.705994 280.305878,584.595276 270.398926,589.311096 
	C259.754456,594.378052 248.028564,597.173218 236.109375,601.042603 
	C234.986801,601.375854 234.529404,601.626221 234.072021,601.876587 
	C221.738586,603.241211 209.430450,605.308533 197.063904,605.753662 
	C186.688995,606.127197 176.245987,604.608704 165.232803,603.742432 
	C164.422043,603.352722 164.195480,603.168274 163.952805,603.003601 
	C146.866516,601.474731 130.835907,596.175537 115.361610,589.093628 
	C91.915245,578.363159 71.831116,562.948181 54.552589,543.957397 
	C33.994770,521.362488 19.546251,495.261566 11.238200,465.819275 
	C11.060533,465.189697 11.097213,464.499603 10.885213,463.264832 
	C10.553397,462.466156 10.351574,462.258575 10.131058,462.069214 
	C10.095293,461.313446 10.059526,460.557648 9.880150,459.247711 
	C9.553468,458.467163 9.351584,458.259064 9.130891,458.069183 
	C7.424899,446.697693 5.718908,435.326202 3.873718,423.324371 
	C3.550040,422.466064 3.346541,422.256622 3.124022,422.065643 
	C2.961445,399.924530 2.136821,377.754028 6.254506,355.213806 
	C6.646523,354.422028 6.831293,354.194946 6.996146,353.951691 
	C8.999966,344.881195 11.003787,335.810730 13.211441,326.187561 
	C13.630135,325.408478 13.820898,325.163330 13.987564,324.899445 
	C19.391426,312.466217 24.196316,299.726929 30.352383,287.678009 
	C37.867115,272.969818 48.255341,260.097717 60.063969,248.588455 
	C88.082008,221.280762 120.844177,202.876755 160.020081,197.296082 
	C175.645142,195.070236 191.379898,194.146423 207.758743,196.258698 
	C208.578293,196.647491 208.804962,196.831757 209.047760,196.996170 
	C212.771835,197.348953 216.495895,197.701736 220.793594,198.248337 
	C221.578018,198.646759 221.805023,198.831406 222.048248,198.996124 
	C233.624664,202.467529 245.542267,205.092636 256.704041,209.592499 
	C277.719788,218.065033 295.813843,231.307800 312.279114,246.791550 
	C312.749634,247.234024 313.319061,247.571274 315.071106,248.864685 
	C315.071106,234.528229 315.071106,221.204041 315.243896,207.284348 
	C315.606445,206.514893 315.780487,206.326416 315.938812,206.123413 
	C348.332611,206.105972 380.726379,206.088547 413.715668,206.243866 
	C414.485107,206.606400 414.673584,206.780441 414.876587,206.938721 
	C414.911621,209.603195 414.977142,212.267654 414.977264,214.932129 
	C414.982330,331.198914 415.001556,447.465698 414.937195,563.732483 
	C414.932892,571.528564 414.290833,579.324219 413.764465,587.742554 
	C413.369324,588.590820 413.178986,588.835205 413.012543,589.098145 
	C410.331360,605.155151 407.650208,621.212097 404.762054,637.818115 
	C404.351562,638.576782 404.167725,638.802429 404.003571,639.044128 
	C399.772644,653.935852 394.217316,668.051086 385.708740,681.303040 
	C379.083038,691.622559 371.640381,700.895081 363.038208,709.422241 
	C346.110474,726.202393 326.057037,738.023499 303.928650,746.517517 
	C286.021027,753.391418 267.379456,757.241394 248.436432,759.777832 
	C245.976730,760.107178 243.448761,759.926758 240.322556,760.124634 
	C239.464859,760.452454 239.255753,760.657227 239.065384,760.881104 
	C235.030685,760.916077 230.996002,760.951050 226.326736,761.123291 
	C225.469147,761.441772 225.264114,761.641296 225.077042,761.859314 
	C197.117935,762.625854 169.326447,761.027466 141.207977,755.761719 
	C140.419739,755.359619 140.187790,755.171814 139.938919,755.004944 
	C125.645020,753.115295 112.303787,748.126221 99.132355,742.543213 
	C75.169220,732.385925 54.829041,717.184082 37.527435,697.909546 
	C25.456440,684.462097 16.101580,669.193359 9.070840,652.547058 
	C6.878801,647.357056 5.107376,641.989502 3.077573,636.329468 
M243.750946,509.994171 
	C251.099274,507.023315 258.764038,504.652313 265.738800,500.973297 
	C290.331970,488.001129 305.967987,467.024994 314.602722,441.291687 
	C318.380463,430.033234 318.986145,417.537140 319.845673,405.518188 
	C320.844147,391.556396 318.376312,377.766571 314.676910,363.763672 
	C314.445801,363.506195 314.214691,363.248718 313.957397,362.222046 
	C302.483093,327.319275 279.018982,304.698578 243.975021,293.979828 
	C228.958618,289.386841 213.491348,289.792694 197.694672,290.266937 
	C197.466125,290.451935 197.256180,290.656067 196.201904,290.930939 
	C192.841873,291.293152 189.481842,291.655334 185.726471,292.289276 
	C185.472656,292.484192 185.240524,292.702209 184.223602,292.974548 
	C167.893051,296.350281 153.366043,303.753448 141.027802,314.651306 
	C108.692413,343.211761 98.581413,379.855316 104.440681,421.518280 
	C108.087555,447.449799 119.772896,469.476593 139.465927,486.966858 
	C154.558029,500.370880 171.878784,509.259430 192.361969,512.429199 
	C192.579010,512.638794 192.813248,512.827087 193.938354,513.015808 
	C195.980225,513.050720 198.022079,513.085632 200.364944,513.440796 
	C200.576874,513.645996 200.805084,513.831116 201.980515,514.014404 
	C209.628235,514.006958 217.275955,513.999451 225.295654,513.722351 
	C225.534882,513.531250 225.754105,513.319458 226.835526,513.050842 
	C231.849533,512.361389 236.863541,511.671875 242.273468,510.710052 
	C242.527664,510.514771 242.760101,510.296356 243.750946,509.994171 
z"/>
<path fill="#003333" opacity="1.000000" stroke="none" 
	d="
M636.000000,605.981812 
	C628.501892,605.980896 621.498352,605.815308 614.507690,606.042847 
	C610.488098,606.173706 608.713562,604.906616 608.944458,600.663940 
	C609.215759,595.680115 609.004700,590.670105 609.004639,585.671448 
	C609.004456,490.363525 609.005127,395.055603 609.003357,299.747681 
	C609.003235,292.020599 608.995728,292.016998 601.426758,292.010681 
	C593.595520,292.004181 585.761658,291.885345 577.934204,292.056793 
	C574.284851,292.136688 572.941406,290.812775 572.956421,287.121521 
	C573.059875,261.628723 573.050842,236.135239 572.968018,210.642334 
	C572.956726,207.185257 574.264221,205.912643 577.682922,205.967056 
	C586.178467,206.102295 594.686218,205.776566 603.171997,206.093735 
	C607.887146,206.269974 609.170715,204.477142 609.084351,200.008774 
	C608.849243,187.849915 608.649109,175.670685 609.087769,163.523117 
	C609.746643,145.280350 610.036682,126.949837 612.146484,108.850487 
	C615.754517,77.898460 638.161194,53.852757 668.351685,45.886295 
	C697.368286,38.229610 725.981323,40.536301 754.470520,48.369736 
	C760.879822,50.132042 767.245667,52.129524 773.457031,54.479717 
	C774.979919,55.055920 776.806091,57.438202 776.819519,59.004452 
	C777.021790,82.662621 776.947632,106.323174 776.916016,129.983139 
	C776.915161,130.621353 776.664856,131.259262 776.412354,132.461655 
	C771.497131,131.351639 766.769714,129.800461 761.932739,129.292953 
	C752.048645,128.255890 742.057190,126.808334 732.198364,127.300789 
	C717.410095,128.039474 710.293823,136.500137 710.056763,152.034927 
	C709.807495,168.360107 710.093201,184.692947 709.928345,201.020264 
	C709.886963,205.117188 711.631104,206.081665 715.333618,206.055466 
	C732.494873,205.934036 749.659485,206.151215 766.818176,205.910843 
	C771.603516,205.843796 773.130371,207.313614 773.089783,212.143799 
	C772.882935,236.802170 772.895813,261.463928 773.081604,286.122620 
	C773.116394,290.731384 771.619507,292.153046 767.065674,292.094513 
	C750.239624,291.878143 733.409119,292.000153 716.580261,292.014709 
	C710.011230,292.020386 709.984802,292.044189 709.984436,298.734741 
	C709.978577,398.041595 709.980286,497.348419 709.979492,596.655273 
	C709.979492,598.321472 709.880066,599.993347 709.984314,601.652649 
	C710.190063,604.929443 708.609802,606.043640 705.480591,606.005920 
	C697.150757,605.905457 688.818848,605.980408 680.487732,605.981445 
	C665.825134,605.983276 651.162598,605.981934 636.000000,605.981812 
z"/>
<path fill="#FF5E00" opacity="1.000000" stroke="none" 
	d="
M1112.201294,354.959198 
	C1098.483154,351.283752 1085.186401,347.624908 1071.879272,344.004883 
	C1064.047607,341.874298 1056.192505,339.829071 1048.367310,337.675171 
	C1047.494141,337.434784 1046.747437,336.734039 1045.920044,336.233459 
	C1060.093994,283.362305 1074.207153,230.718246 1088.453369,177.577286 
	C1097.581055,179.987671 1106.356812,182.293869 1115.126465,184.623123 
	C1141.957031,191.749466 1168.797729,198.837555 1195.610474,206.030136 
	C1220.696289,212.759460 1245.741333,219.640579 1270.822754,226.386292 
	C1296.526245,233.299316 1322.251221,240.131989 1347.968262,246.994553 
	C1373.067993,253.692337 1398.173828,260.367554 1423.268799,267.083191 
	C1439.255371,271.361298 1455.208618,275.763947 1471.214111,279.969086 
	C1477.468628,281.612335 1477.615479,281.879700 1476.006226,287.808533 
	C1469.926636,310.206421 1464.008301,332.648041 1457.999023,355.065155 
	C1451.610474,378.897583 1445.192627,402.722198 1438.774536,426.546692 
	C1437.475342,431.369537 1436.117432,436.176544 1434.735718,441.175598 
	C1416.120605,436.164276 1397.975098,431.230835 1379.802979,426.397308 
	C1341.529053,416.217010 1303.213623,406.192291 1264.966919,395.910919 
	C1226.103760,385.463867 1187.313477,374.745453 1148.468384,364.231110 
	C1136.557373,361.007141 1124.570557,358.063904 1112.201294,354.959198 
z"/>
<path fill="#003333" opacity="1.000000" stroke="none" 
	d="
M942.872559,58.119724 
	C943.246765,60.354301 943.944275,62.588409 943.947510,64.823517 
	C944.011597,109.476730 943.993225,154.130051 943.997803,198.783340 
	C943.998596,205.984726 944.012451,205.997604 951.096558,206.001816 
	C966.425293,206.010941 981.756165,206.148758 997.081421,205.918427 
	C1001.658264,205.849609 1003.114075,207.317841 1003.080872,211.906723 
	C1002.898560,237.064545 1002.905762,262.224945 1003.076233,287.382935 
	C1003.106140,291.801483 1001.630798,293.144196 997.301514,293.087524 
	C981.808838,292.884705 966.311890,293.001678 950.816528,293.013428 
	C944.017395,293.018555 943.998718,293.035767 943.998413,300.004608 
	C943.994202,398.641724 943.995483,497.278839 943.995178,595.915955 
	C943.995178,597.582153 943.855347,599.261719 944.017334,600.911804 
	C944.408508,604.897949 942.573059,606.075195 938.757324,606.062195 
	C908.600037,605.959595 878.441223,605.873718 848.285522,606.117432 
	C842.297180,606.165833 843.014099,602.658264 843.014282,598.976318 
	C843.019226,500.172577 843.024658,401.368835 843.008667,302.565094 
	C843.006897,291.919373 843.988342,293.060059 833.251404,293.019684 
	C821.255188,292.974548 809.257324,292.905396 797.263062,293.065002 
	C793.471802,293.115417 791.924683,291.964264 791.944702,287.951843 
	C792.072876,262.293518 792.076050,236.633896 791.942932,210.975601 
	C791.921631,206.867142 793.655151,205.914474 797.349121,205.953384 
	C810.510376,206.092072 823.677734,205.826218 836.834778,206.097992 
	C841.627197,206.196991 843.122192,204.673477 843.108154,199.854736 
	C842.972290,153.202789 843.049072,106.550209 843.544678,59.439713 
	C875.034790,58.987267 906.045349,59.008698 937.055847,58.960876 
	C938.995178,58.957886 940.933655,58.412670 942.872559,58.119724 
z"/>
<path fill="#003333" opacity="1.000000" stroke="none" 
	d="
M448.004852,546.000000 
	C448.004852,434.870453 448.004211,324.240936 448.006195,213.611389 
	C448.006348,206.014053 448.015472,206.006958 455.710541,206.006149 
	C484.867401,206.003098 514.024292,206.000336 543.181152,206.008636 
	C549.964661,206.010559 549.997375,206.030807 549.997681,212.495468 
	C550.004150,341.452179 550.003967,470.408905 549.998047,599.365601 
	C549.997742,605.950867 549.967590,605.975220 543.289368,605.977356 
	C513.632629,605.986877 483.975006,605.863892 454.320068,606.091980 
	C449.133942,606.131775 447.834320,604.407532 447.905457,599.480713 
	C448.160400,581.823730 448.005035,564.160706 448.004852,546.000000 
z"/>
<path fill="#FF5F00" opacity="1.000000" stroke="none" 
	d="
M227.677994,986.721985 
	C223.591431,1000.216064 222.110687,1013.691345 221.996658,1027.357300 
	C221.676086,1065.783569 221.325470,1104.209595 221.012558,1142.635986 
	C220.950485,1150.259399 221.003601,1157.883911 221.003601,1165.753540 
	C208.965530,1165.753540 197.360382,1165.753540 185.376373,1165.753540 
	C185.376373,1040.788330 185.376373,915.744751 185.376373,790.349060 
	C196.948120,790.349060 208.670792,790.349060 220.961517,790.349060 
	C220.961517,840.327393 220.961517,890.328857 220.961517,941.390503 
	C232.281067,927.189087 244.109940,915.198242 258.512787,906.003479 
	C272.253632,897.231323 287.018341,891.151917 303.295288,888.965393 
	C321.837250,886.474487 340.025085,887.086060 357.753204,893.885681 
	C373.601288,899.964294 386.676147,909.529785 397.434784,922.719177 
	C409.485901,937.493225 415.747742,954.452820 417.941956,973.062317 
	C419.307617,984.644958 420.798492,996.301514 420.867737,1007.932983 
	C421.179749,1060.351074 421.003906,1112.772095 421.003906,1165.600098 
	C410.151947,1165.600098 398.428619,1165.600098 385.999084,1165.600098 
	C385.999084,1163.861694 385.999115,1161.938965 385.999115,1160.016357 
	C385.998505,1110.857300 386.426849,1061.692505 385.787598,1012.541748 
	C385.529388,992.688171 384.847443,972.534119 375.062866,954.212158 
	C365.509216,936.322510 350.891418,925.545898 330.915649,921.983582 
	C312.570648,918.712097 294.791229,920.711670 277.985138,928.638489 
	C264.747498,934.882019 253.814072,944.259827 244.564072,955.684814 
	C237.082123,964.925964 231.309769,974.983643 227.677994,986.721985 
z"/>
<path fill="#FF5E00" opacity="1.000000" stroke="none" 
	d="
M491.763336,1138.264893 
	C476.708618,1124.401733 464.986053,1108.530762 456.666962,1090.211182 
	C451.190552,1078.151489 447.329132,1065.596313 446.014618,1052.362061 
	C445.235352,1044.516235 443.924133,1036.630005 444.133270,1028.796143 
	C444.859589,1001.591248 451.313660,976.037415 466.448914,952.888489 
	C481.071228,930.524414 499.623108,912.684998 523.624084,900.843018 
	C536.681702,894.400513 550.484131,890.161255 565.115479,888.967468 
	C571.812378,888.421143 578.576111,886.668396 585.162537,887.219604 
	C598.482483,888.334167 611.945190,889.621521 624.909790,892.692139 
	C648.191101,898.206360 667.586853,910.759155 684.523376,927.782410 
	C703.267029,946.621826 715.978882,968.634766 722.394897,994.211731 
	C724.527771,1002.714050 724.894531,1011.664551 725.997498,1020.419067 
	C728.504150,1040.313599 725.137329,1059.575562 718.916931,1078.338135 
	C713.215027,1095.536987 703.854553,1110.699707 692.104492,1124.583130 
	C679.712708,1139.225098 665.350647,1151.156250 648.071411,1159.386230 
	C635.073792,1165.576782 621.426880,1169.819824 606.961548,1171.020264 
	C599.597778,1171.631348 592.183105,1173.260010 584.894714,1172.798096 
	C571.063965,1171.921753 557.206787,1171.128906 543.666565,1167.164673 
	C524.203674,1161.466309 506.976868,1152.134644 491.763336,1138.264893 
M646.446838,942.969604 
	C639.283508,938.801758 632.318115,934.235779 624.912781,930.554688 
	C612.243347,924.256958 598.378967,922.668213 584.484497,922.153503 
	C578.821716,921.943726 572.918945,922.674561 567.444031,924.155518 
	C557.925415,926.730530 548.174744,929.242676 539.388916,933.550476 
	C525.370667,940.423828 514.139160,951.108643 504.215057,963.212952 
	C490.312164,980.170105 483.022217,999.781982 481.147827,1021.298584 
	C479.667603,1038.290649 481.767944,1055.067017 488.064636,1071.116455 
	C495.598755,1090.319702 507.040192,1106.785889 523.839722,1118.856812 
	C543.778687,1133.183350 566.148193,1139.419678 590.923767,1138.165649 
	C611.634277,1137.117432 630.240234,1130.995728 646.957092,1118.986816 
	C663.980103,1106.757812 675.372009,1090.248535 683.087524,1070.929077 
	C688.926941,1056.307129 690.520081,1041.164062 690.063904,1025.569580 
	C689.646118,1011.289185 686.289246,997.796204 680.396118,984.902466 
	C672.794373,968.270569 661.046021,954.916931 646.446838,942.969604 
z"/>
<path fill="#003333" opacity="1.000000" stroke="none" 
	d="
M1630.814941,156.777283 
	C1656.167969,141.371765 1683.815308,134.084717 1712.488159,129.948792 
	C1735.400635,126.643761 1758.443237,125.628830 1781.571167,126.001312 
	C1807.323975,126.416069 1826.185913,138.111725 1838.739624,160.450378 
	C1846.137817,173.615067 1849.437866,187.616501 1850.214966,202.759293 
	C1851.833496,234.292130 1844.727783,263.732697 1831.019409,291.770355 
	C1823.671143,306.799622 1813.690186,320.199921 1802.054810,332.133575 
	C1792.262329,342.177002 1780.598267,349.396698 1765.644775,346.787659 
	C1757.493896,345.365479 1749.535034,342.811798 1741.515625,340.671234 
	C1697.837524,329.012787 1654.146606,317.401520 1610.503784,305.612305 
	C1589.452026,299.925568 1575.668579,277.736572 1580.030029,256.089569 
	C1583.241211,240.152222 1586.934082,224.287720 1591.097168,208.572189 
	C1597.064819,186.044296 1609.773315,168.369873 1630.814941,156.777283 
M1626.554443,197.053238 
	C1613.746094,203.673203 1606.292358,214.538544 1602.550293,228.075455 
	C1599.941528,237.512741 1597.640137,247.054153 1595.675537,256.646149 
	C1592.164917,273.783905 1601.181763,287.734436 1617.982788,292.206879 
	C1649.458496,300.585663 1680.929077,308.988586 1712.326416,317.654755 
	C1723.076416,320.621979 1733.362183,321.858368 1742.389526,313.699799 
	C1746.185547,310.269165 1749.669312,306.433838 1752.934082,302.484100 
	C1772.832397,278.410980 1781.144897,250.756058 1776.947388,219.826080 
	C1773.765259,196.379318 1756.131592,175.003815 1726.908813,176.054779 
	C1714.465210,176.502289 1702.006714,176.974640 1689.604248,178.020828 
	C1667.534424,179.882507 1646.248535,184.689957 1626.554443,197.053238 
z"/>
<path fill="#003333" opacity="1.000000" stroke="none" 
	d="
M1541.086426,286.995544 
	C1518.371826,280.927582 1496.062866,274.945618 1473.761963,268.934082 
	C1465.668457,266.752350 1458.752319,262.834503 1453.835693,255.743881 
	C1451.886108,252.932541 1451.924805,251.162216 1455.116699,249.415375 
	C1464.369995,244.351257 1470.002686,236.280212 1472.983154,226.396606 
	C1477.245117,212.264587 1482.207153,198.228851 1484.931763,183.786316 
	C1486.925415,173.217651 1485.712402,162.057129 1486.157837,151.169785 
	C1486.227173,149.476883 1487.068726,147.268402 1488.325073,146.260010 
	C1496.524292,139.678329 1506.355225,136.842697 1516.539062,136.149139 
	C1538.586182,134.647629 1559.007690,139.980362 1576.043091,154.390594 
	C1582.069946,159.488693 1586.249268,166.839966 1590.909790,173.419128 
	C1591.724609,174.569260 1591.444214,177.588043 1590.475830,178.743118 
	C1577.755615,193.915329 1572.631348,212.312683 1568.086060,230.926636 
	C1566.237427,238.497284 1565.034180,246.225449 1563.535278,253.881607 
	C1561.722900,263.139618 1563.753296,271.764069 1568.304199,279.778870 
	C1570.147339,283.025055 1569.295776,284.490417 1566.279907,285.892365 
	C1558.151489,289.670868 1549.900513,289.709564 1541.086426,286.995544 
z"/>
<path fill="#003333" opacity="1.000000" stroke="none" 
	d="
M543.730469,59.243137 
	C556.659668,72.184189 563.566650,87.671165 563.733582,105.425171 
	C563.919006,125.144043 556.866089,141.984268 541.970825,155.858551 
	C519.918213,176.399582 482.881592,177.943924 458.239227,157.371750 
	C443.857697,145.365616 435.887726,129.610260 434.979248,110.561920 
	C434.296997,96.257225 436.412903,82.653145 444.697815,70.624069 
	C458.454987,50.649529 477.493896,40.328773 501.828888,41.154526 
	C516.118774,41.639423 529.171021,46.304874 539.879883,56.335125 
	C540.960876,57.347603 542.270203,58.116226 543.730469,59.243137 
z"/>
<path fill="#004242" opacity="1.000000" stroke="none" 
	d="
M942.416260,58.092819 
	C940.933655,58.412670 938.995178,58.957886 937.055847,58.960876 
	C906.045349,59.008698 875.034790,58.987267 843.564819,58.968689 
	C844.686279,58.646549 846.266846,58.069706 847.848145,58.067669 
	C879.218750,58.027241 910.589355,58.053322 942.416260,58.092819 
z"/>
<path fill="#003737" opacity="1.000000" stroke="none" 
	d="
M234.336823,601.842224 
	C234.529404,601.626221 234.986801,601.375854 235.698242,601.057129 
	C235.502075,601.261841 235.051849,601.534851 234.336823,601.842224 
z"/>
<path fill="#003737" opacity="1.000000" stroke="none" 
	d="
M244.738129,664.205322 
	C244.748596,664.332458 244.535126,664.540710 244.120850,664.862427 
	C244.089050,664.724304 244.287094,664.494446 244.738129,664.205322 
z"/>
<path fill="#003737" opacity="1.000000" stroke="none" 
	d="
M414.785278,206.762970 
	C414.673584,206.780441 414.485107,206.606400 414.187683,206.269806 
	C414.321625,206.213379 414.531525,206.368118 414.785278,206.762970 
z"/>
<path fill="#003737" opacity="1.000000" stroke="none" 
	d="
M315.763062,206.214737 
	C315.780487,206.326416 315.606445,206.514893 315.269836,206.812317 
	C315.213440,206.678406 315.368225,206.468506 315.763062,206.214737 
z"/>
<path fill="#003737" opacity="1.000000" stroke="none" 
	d="
M13.790980,325.034668 
	C13.820898,325.163330 13.630135,325.408478 13.247622,325.795135 
	C13.166459,325.637909 13.337934,325.376068 13.790980,325.034668 
z"/>
<path fill="#003737" opacity="1.000000" stroke="none" 
	d="
M6.814332,354.081543 
	C6.831293,354.194946 6.646523,354.422028 6.282661,354.781830 
	C6.226402,354.643768 6.396080,354.403992 6.814332,354.081543 
z"/>
<path fill="#003737" opacity="1.000000" stroke="none" 
	d="
M221.918396,198.814392 
	C221.805023,198.831406 221.578018,198.646759 221.218323,198.283112 
	C221.356354,198.226791 221.596069,198.396332 221.918396,198.814392 
z"/>
<path fill="#003737" opacity="1.000000" stroke="none" 
	d="
M225.270477,761.758545 
	C225.264114,761.641296 225.469147,761.441772 225.865234,761.131165 
	C225.888855,761.257202 225.697403,761.475891 225.270477,761.758545 
z"/>
<path fill="#003737" opacity="1.000000" stroke="none" 
	d="
M239.264069,760.779053 
	C239.255753,760.657227 239.464859,760.452454 239.869705,760.134583 
	C239.897339,760.266357 239.702682,760.491272 239.264069,760.779053 
z"/>
<path fill="#003737" opacity="1.000000" stroke="none" 
	d="
M140.068924,755.192749 
	C140.187790,755.171814 140.419739,755.359619 140.786499,755.731018 
	C140.640778,755.796204 140.394348,755.625122 140.068924,755.192749 
z"/>
<path fill="#003737" opacity="1.000000" stroke="none" 
	d="
M222.731293,667.236572 
	C222.737946,667.354675 222.531982,667.555542 222.133835,667.868042 
	C222.109695,667.741089 222.302017,667.520996 222.731293,667.236572 
z"/>
<path fill="#003737" opacity="1.000000" stroke="none" 
	d="
M190.062195,667.729431 
	C189.921310,667.760437 189.640808,667.560791 189.178543,667.177734 
	C189.305389,667.162598 189.613983,667.330688 190.062195,667.729431 
z"/>
<path fill="#003737" opacity="1.000000" stroke="none" 
	d="
M9.232485,458.265472 
	C9.351584,458.259064 9.553468,458.467163 9.866835,458.869568 
	C9.738333,458.893890 9.517315,458.699280 9.232485,458.265472 
z"/>
<path fill="#003636" opacity="1.000000" stroke="none" 
	d="
M404.183899,638.914551 
	C404.167725,638.802429 404.351562,638.576782 404.713135,638.218994 
	C404.767517,638.355286 404.598511,638.593323 404.183899,638.914551 
z"/>
<path fill="#003737" opacity="1.000000" stroke="none" 
	d="
M113.951889,634.809998 
	C113.835838,634.831177 113.599350,634.648193 113.225754,634.282593 
	C113.367020,634.220337 113.614624,634.388977 113.951889,634.809998 
z"/>
<path fill="#003737" opacity="1.000000" stroke="none" 
	d="
M3.226289,422.263428 
	C3.346541,422.256622 3.550040,422.466064 3.865676,422.871338 
	C3.735787,422.896393 3.513029,422.700562 3.226289,422.263428 
z"/>
<path fill="#003737" opacity="1.000000" stroke="none" 
	d="
M164.082901,603.184570 
	C164.195480,603.168274 164.422043,603.352722 164.781097,603.715820 
	C164.644211,603.770569 164.405304,603.600891 164.082901,603.184570 
z"/>
<path fill="#003636" opacity="1.000000" stroke="none" 
	d="
M413.209015,588.963745 
	C413.178986,588.835205 413.369324,588.590820 413.750519,588.205078 
	C413.832397,588.362305 413.661743,588.623718 413.209015,588.963745 
z"/>
<path fill="#003737" opacity="1.000000" stroke="none" 
	d="
M208.918045,196.814850 
	C208.804962,196.831757 208.578293,196.647491 208.219055,196.284729 
	C208.356827,196.228485 208.596161,196.397644 208.918045,196.814850 
z"/>
<path fill="#003737" opacity="1.000000" stroke="none" 
	d="
M10.232723,462.265106 
	C10.351574,462.258575 10.553397,462.466156 10.866953,462.867371 
	C10.738560,462.891998 10.517562,462.698029 10.232723,462.265106 
z"/>
<path fill="#000000" opacity="1.000000" stroke="none" 
	d="
M919.104370,1136.047363 
	C907.069885,1139.238525 895.458069,1140.514526 883.274048,1139.223755 
	C868.587280,1137.667847 854.852722,1133.736328 841.903687,1126.940796 
	C813.678223,1112.128540 795.909668,1089.348633 788.787842,1058.026245 
	C785.960205,1045.590088 785.363586,1033.131104 786.168335,1020.672058 
	C787.487122,1000.254089 794.198547,981.368286 806.638489,965.054871 
	C820.290894,947.151245 837.367859,933.546814 859.355164,926.900940 
	C877.927429,921.287231 896.538147,920.399902 915.584900,924.749451 
	C933.701538,928.886780 949.406555,937.047485 963.095642,949.541199 
	C981.311768,966.166626 992.430908,986.647827 997.012512,1010.736389 
	C1003.118469,1042.839233 995.039612,1071.577026 975.918396,1097.571045 
	C961.637634,1116.984741 942.596802,1129.470093 919.104370,1136.047363 
z"/>
<path fill="#000000" opacity="1.000000" stroke="none" 
	d="
M1286.095947,129.149658 
	C1290.969604,113.151421 1297.587036,98.460800 1309.616211,87.064499 
	C1318.776245,78.386452 1330.019653,72.943817 1342.645020,72.282188 
	C1352.225464,71.780144 1361.417358,75.242882 1369.476807,80.439743 
	C1383.840942,89.702034 1398.324097,98.882797 1411.934570,109.184700 
	C1428.836670,121.977882 1442.219116,137.957779 1450.407715,157.875870 
	C1454.271484,167.274658 1453.702148,176.949249 1451.489624,186.331909 
	C1448.826172,197.626358 1445.509155,208.854507 1441.368530,219.688385 
	C1437.134399,230.766998 1423.146851,240.482300 1405.653076,235.462067 
	C1379.469482,227.948120 1353.065796,221.201172 1326.755371,214.129410 
	C1319.059082,212.060760 1311.349854,210.038712 1303.666992,207.920853 
	C1292.603394,204.870972 1287.932251,196.127762 1285.339722,186.158447 
	C1280.433105,167.291702 1280.592896,148.354553 1286.095947,129.149658 
z"/>
<path fill="#000505" opacity="1.000000" stroke="none" 
	d="
M186.121811,292.017517 
	C189.481842,291.655334 192.841873,291.293152 196.831131,290.802979 
	C197.700653,290.489929 197.897049,290.266235 198.049515,290.003998 
	C213.491348,289.792694 228.958618,289.386841 243.975021,293.979828 
	C279.018982,304.698578 302.483093,327.319275 314.050537,362.864929 
	C314.414581,363.739502 314.685516,363.971191 314.956421,364.202911 
	C318.376312,377.766571 320.844147,391.556396 319.845673,405.518188 
	C318.986145,417.537140 318.380463,430.033234 314.602722,441.291687 
	C305.967987,467.024994 290.331970,488.001129 265.738800,500.973297 
	C258.764038,504.652313 251.099274,507.023315 243.133911,510.117981 
	C242.241989,510.435333 242.028885,510.682159 241.877548,510.982361 
	C236.863541,511.671875 231.849533,512.361389 226.184357,513.169434 
	C225.278534,513.478027 225.075363,513.712708 224.923676,513.991943 
	C217.275955,513.999451 209.628235,514.006958 201.383850,513.822876 
	C200.593124,513.394470 200.352051,513.224182 200.063950,513.120483 
	C198.022079,513.085632 195.980225,513.050720 193.369370,512.816223 
	C192.602081,512.371643 192.353195,512.200073 192.053757,512.101807 
	C171.878784,509.259430 154.558029,500.370880 139.465927,486.966858 
	C119.772896,469.476593 108.087555,447.449799 104.440681,421.518280 
	C98.581413,379.855316 108.692413,343.211761 141.027802,314.651306 
	C153.366043,303.753448 167.893051,296.350281 184.853638,292.865875 
	C185.758209,292.563995 185.970917,292.317413 186.121811,292.017517 
z"/>
<path fill="#003737" opacity="1.000000" stroke="none" 
	d="
M185.924133,292.153381 
	C185.970917,292.317413 185.758209,292.563995 185.256866,292.850220 
	C185.240524,292.702209 185.472656,292.484192 185.924133,292.153381 
z"/>
<path fill="#003636" opacity="1.000000" stroke="none" 
	d="
M314.816650,363.983276 
	C314.685516,363.971191 314.414581,363.739502 314.063629,363.249512 
	C314.214691,363.248718 314.445801,363.506195 314.816650,363.983276 
z"/>
<path fill="#003737" opacity="1.000000" stroke="none" 
	d="
M197.872101,290.135468 
	C197.897049,290.266235 197.700653,290.489929 197.262604,290.777161 
	C197.256180,290.656067 197.466125,290.451935 197.872101,290.135468 
z"/>
<path fill="#003737" opacity="1.000000" stroke="none" 
	d="
M225.109665,513.857178 
	C225.075363,513.712708 225.278534,513.478027 225.743256,513.187439 
	C225.754105,513.319458 225.534882,513.531250 225.109665,513.857178 
z"/>
<path fill="#003737" opacity="1.000000" stroke="none" 
	d="
M200.214447,513.280640 
	C200.352051,513.224182 200.593124,513.394470 200.918396,513.813721 
	C200.805084,513.831116 200.576874,513.645996 200.214447,513.280640 
z"/>
<path fill="#003737" opacity="1.000000" stroke="none" 
	d="
M192.207855,512.265503 
	C192.353195,512.200073 192.602081,512.371643 192.932526,512.805298 
	C192.813248,512.827087 192.579010,512.638794 192.207855,512.265503 
z"/>
<path fill="#003737" opacity="1.000000" stroke="none" 
	d="
M242.075500,510.846191 
	C242.028885,510.682159 242.241989,510.435333 242.743820,510.148315 
	C242.760101,510.296356 242.527664,510.514771 242.075500,510.846191 
z"/>
<path fill="#000000" opacity="1.000000" stroke="none" 
	d="
M646.709717,943.220642 
	C661.046021,954.916931 672.794373,968.270569 680.396118,984.902466 
	C686.289246,997.796204 689.646118,1011.289185 690.063904,1025.569580 
	C690.520081,1041.164062 688.926941,1056.307129 683.087524,1070.929077 
	C675.372009,1090.248535 663.980103,1106.757812 646.957092,1118.986816 
	C630.240234,1130.995728 611.634277,1137.117432 590.923767,1138.165649 
	C566.148193,1139.419678 543.778687,1133.183350 523.839722,1118.856812 
	C507.040192,1106.785889 495.598755,1090.319702 488.064636,1071.116455 
	C481.767944,1055.067017 479.667603,1038.290649 481.147827,1021.298584 
	C483.022217,999.781982 490.312164,980.170105 504.215057,963.212952 
	C514.139160,951.108643 525.370667,940.423828 539.388916,933.550476 
	C548.174744,929.242676 557.925415,926.730530 567.444031,924.155518 
	C572.918945,922.674561 578.821716,921.943726 584.484497,922.153503 
	C598.378967,922.668213 612.243347,924.256958 624.912781,930.554688 
	C632.318115,934.235779 639.283508,938.801758 646.709717,943.220642 
z"/>
<path fill="#000000" opacity="1.000000" stroke="none" 
	d="
M1626.838379,196.825745 
	C1646.248535,184.689957 1667.534424,179.882507 1689.604248,178.020828 
	C1702.006714,176.974640 1714.465210,176.502289 1726.908813,176.054779 
	C1756.131592,175.003815 1773.765259,196.379318 1776.947388,219.826080 
	C1781.144897,250.756058 1772.832397,278.410980 1752.934082,302.484100 
	C1749.669312,306.433838 1746.185547,310.269165 1742.389526,313.699799 
	C1733.362183,321.858368 1723.076416,320.621979 1712.326416,317.654755 
	C1680.929077,308.988586 1649.458496,300.585663 1617.982788,292.206879 
	C1601.181763,287.734436 1592.164917,273.783905 1595.675537,256.646149 
	C1597.640137,247.054153 1599.941528,237.512741 1602.550293,228.075455 
	C1606.292358,214.538544 1613.746094,203.673203 1626.838379,196.825745 
z"/>
</svg>